<svg id="Layer_1" data-name="Layer 1" xmlns="http://www.w3.org/2000/svg" xmlns:xlink="http://www.w3.org/1999/xlink" viewBox="0 0 357.59 311.53" data-imageid="apple-monochromatic" imageName="Apple" class="illustrations_image" style="width: 188px;"><defs><linearGradient id="linear-gradient" x1="180.02" y1="352.75" x2="186.21" y2="233.94" gradientUnits="userSpaceOnUse"><stop offset="0.01"/><stop offset="0.13" stop-opacity="0.69"/><stop offset="1" stop-opacity="0"/></linearGradient><linearGradient id="linear-gradient-2" x1="254.77" y1="177.33" x2="235.06" y2="39.93" xlink:href="#linear-gradient"/><linearGradient id="linear-gradient-3" x1="207.73" y1="105.87" x2="267.71" y2="105.87" xlink:href="#linear-gradient"/><linearGradient id="linear-gradient-4" x1="297.16" y1="88.52" x2="244.79" y2="241.41" gradientUnits="userSpaceOnUse"><stop offset="0.01" stop-color="#fff"/><stop offset="0.13" stop-color="#fff" stop-opacity="0.69"/><stop offset="1" stop-color="#fff" stop-opacity="0"/></linearGradient><linearGradient id="linear-gradient-5" x1="-154.36" y1="708.47" x2="214.54" y2="206.36" xlink:href="#linear-gradient"/></defs><title>14</title><path d="M208.3,43.59c-17.33,3.43-34.68,8.12-49.93,17-33.6,19.66-52.66,56.83-81.61,82.86-9,8.1-19.11,15.25-26.1,25.15-9.87,14-12.39,31.74-13.63,48.8-2.76,38.09,1.2,80.56,28.75,107,22.36,21.46,55.54,27.4,86.53,26.71s61.79-6.94,92.75-5.55c19.22.87,38.44,4.68,57.56,2.61,33.34-3.61,63.9-26.43,76.82-57.36,5.8-13.86,8.19-28.88,10.16-43.78,4.65-35.22,7.13-71.42-1.18-106C368.4,57.8,286.35,28.16,208.3,43.59Z" transform="translate(-36.29 -39.67)" fill="#68e1fd" opacity="0.18" style="isolation:isolate" class="target-color"/><ellipse cx="184.85" cy="260.03" rx="123.32" ry="12.18" fill="url(#linear-gradient)"/><path d="M314.06,216.42c0,35.74-13.73,63.73-40.92,79.07a95.55,95.55,0,0,1-25.53,9.71c-7.58,1.76-25.94-3-34.07-3-7.85,0-21.49,6-32.61,5.77C135.32,307,113,262.29,113,216.42c0-24.95,2.2-48.5,17.44-63.59a51.66,51.66,0,0,1,20.29-12.12c15.16-5.15,30.72,10.28,55.19,9.4,20.22-.72,34.91-11,52.55-9.19C298.77,145,314.06,181.28,314.06,216.42Z" transform="translate(-36.29 -39.67)" fill="#68e1fd" class="target-color"/><path d="M212.28,97.75c4.85-12.47,14-23.41,25.92-29.48,12.94-6.58,28-7.15,42.5-7.6-8.61,10.86-7.49,26.17-10,39.8-2.59,13.84-9.84,27.26-21.65,34.94-11.34,7.38-28.29,10.44-41.64,9C207.82,129.11,206.6,112.39,212.28,97.75Z" transform="translate(-36.29 -39.67)" fill="#68e1fd" class="target-color"/><path d="M212.28,97.75c4.85-12.47,14-23.41,25.92-29.48,12.94-6.58,28-7.15,42.5-7.6-8.61,10.86-7.49,26.17-10,39.8-2.59,13.84-9.84,27.26-21.65,34.94-11.34,7.38-28.29,10.44-41.64,9C207.82,129.11,206.6,112.39,212.28,97.75Z" transform="translate(-36.29 -39.67)" opacity="0.23" fill="url(#linear-gradient-2)"/><path d="M226,117.49a25.49,25.49,0,0,1,3.86-5.71c7.89-8.42,22.38-6.88,31-14.6a42.31,42.31,0,0,1-19.41,7.49c-3.85.45-8.11.52-11,3.12,2.24-7.42,7.46-13.54,12.75-19.2q6.26-6.72,12.91-13c3.37-3.19,7.05-6.44,11.6-7.36-8.93-.15-17.39,4.6-23.58,11s-10.45,14.44-14.46,22.42-7.92,16.11-13.59,23A58.56,58.56,0,0,0,211,131.2c-1.54,2.52-4,7.49-3,10.52,1.11,3.36,1.88,1.49,2.67-.82a23.11,23.11,0,0,1,3.49-6.94c2-2.62,4.68-4.71,6.71-7.33S224.37,120.58,226,117.49Z" transform="translate(-36.29 -39.67)" opacity="0.23" fill="url(#linear-gradient-3)"/><path d="M200.48,139.77a61.55,61.55,0,0,0-1.3-10.24c-1.4-5.76-4.42-11-7.66-16a42.53,42.53,0,0,0-6.19-7.87c-4-3.75-9.07-6-14.16-8a23.52,23.52,0,0,1,6.8-6.31,2.5,2.5,0,0,1,1-.4,2.39,2.39,0,0,1,1.16.28c10,4.26,18.68,11.77,23.62,21.43,5.71,11.19,6.1,24.24,6.37,36.8a2.9,2.9,0,0,1-.41,1.91,2.62,2.62,0,0,1-1.26.75c-2.12.69-7.38,1.5-7.81-1.35-.21-1.45.25-3.38.21-4.89C200.77,143.86,200.62,141.81,200.48,139.77Z" transform="translate(-36.29 -39.67)" fill="#fff"/><path d="M233.53,169.77c.73,3.44,3.16,6.23,5.6,8.76,9.6,10,20.87,18.71,27.69,30.76,2.3,4.07,4.12,8.55,7.47,11.81s8.93,4.92,12.73,2.18c3.37-2.44,4-7.14,4.07-11.3.25-11.63-1.39-23.43-5.95-34.14-4.09-9.61-13.24-25-25-26C250.18,151,230.68,156.34,233.53,169.77Z" transform="translate(-36.29 -39.67)" fill="url(#linear-gradient-4)"/><path d="M273.14,295.49a95.55,95.55,0,0,1-25.53,9.71c-7.58,1.76-25.94-3-34.07-3-7.85,0-21.49,6-32.61,5.77C135.32,307,113,262.29,113,216.42c0-24.95,2.2-48.5,17.44-63.59a55.8,55.8,0,0,1,24.78,11.66c1.6,1.32,3.23,2.9,3.51,5s-.71,3.79-1.65,5.5l-16.31,29.33c-1.61,2.9-3.25,5.88-3.71,9.16a24.14,24.14,0,0,0,.46,7.57,99.63,99.63,0,0,0,14.54,36.48c3.6,5.5,7.94,10.81,13.86,13.67,5.15,2.49,11.05,2.91,16.77,2.72,16.07-.52,32.4-5.45,48-1.42,10.64,2.76,19.75,9.34,29.36,14.41C264.62,289.28,269.94,291.52,273.14,295.49Z" transform="translate(-36.29 -39.67)" fill="url(#linear-gradient-5)"/></svg>