<svg id="Layer_1" data-name="Layer 1" xmlns="http://www.w3.org/2000/svg" xmlns:xlink="http://www.w3.org/1999/xlink" viewBox="0 0 475.74 376.77" data-imageid="biker-monochromatic" imageName="Biker" class="illustrations_image" style="width: 188px;"><defs><linearGradient id="linear-gradient" x1="311.74" y1="200.25" x2="405.8" y2="200.25" gradientUnits="userSpaceOnUse"><stop offset="0" stop-color="#ecc4d7"/><stop offset="0.42" stop-color="#efd4d1"/><stop offset="1" stop-color="#f2eac9"/></linearGradient><linearGradient id="linear-gradient-2" x1="374.06" y1="188.95" x2="327.51" y2="217.86" gradientUnits="userSpaceOnUse"><stop offset="0" stop-opacity="0"/><stop offset="0.88" stop-opacity="0.8"/><stop offset="0.97"/></linearGradient><linearGradient id="linear-gradient-3" x1="334.05" y1="99.38" x2="322.41" y2="98.44" xlink:href="#linear-gradient-2"/><linearGradient id="linear-gradient-4" x1="248.47" y1="379.54" x2="252.98" y2="469.63" gradientTransform="translate(13.33 -7.72) rotate(1.81)" xlink:href="#linear-gradient-2"/><linearGradient id="linear-gradient-5" x1="303.83" y1="243.13" x2="280.18" y2="351.81" xlink:href="#linear-gradient-2"/><linearGradient id="linear-gradient-6" x1="351.08" y1="319.25" x2="408.11" y2="312.18" gradientUnits="userSpaceOnUse"><stop offset="0" stop-color="#fff" stop-opacity="0"/><stop offset="0.84" stop-color="#fff" stop-opacity="0.84"/><stop offset="0.97" stop-color="#fff"/></linearGradient><linearGradient id="linear-gradient-7" x1="238.72" y1="328.25" x2="292.38" y2="328.25" gradientTransform="translate(63.12 -48.27) rotate(11.58)" xlink:href="#linear-gradient"/><linearGradient id="linear-gradient-8" x1="278.67" y1="234.17" x2="289.56" y2="251.82" xlink:href="#linear-gradient-2"/><linearGradient id="linear-gradient-9" x1="372.25" y1="246.97" x2="356.83" y2="247.52" xlink:href="#linear-gradient-2"/><linearGradient id="linear-gradient-10" x1="381.56" y1="190.9" x2="366.15" y2="194.71" xlink:href="#linear-gradient-6"/><linearGradient id="linear-gradient-11" x1="374.25" y1="192.59" x2="349.61" y2="198.68" xlink:href="#linear-gradient-6"/><linearGradient id="linear-gradient-12" x1="214.43" y1="300.24" x2="223.25" y2="301.93" xlink:href="#linear-gradient-2"/><linearGradient id="linear-gradient-13" x1="289.33" y1="197.71" x2="292.51" y2="210.44" xlink:href="#linear-gradient-2"/><linearGradient id="linear-gradient-14" x1="213.26" y1="250.26" x2="356.31" y2="250.26" xlink:href="#linear-gradient-2"/><linearGradient id="linear-gradient-15" x1="127.27" y1="308.4" x2="227.05" y2="323.09" xlink:href="#linear-gradient-2"/><linearGradient id="linear-gradient-16" x1="319.36" y1="94.78" x2="367.03" y2="94.78" xlink:href="#linear-gradient"/><linearGradient id="linear-gradient-17" x1="192.01" y1="220.3" x2="374.7" y2="127.32" xlink:href="#linear-gradient-2"/><linearGradient id="linear-gradient-18" x1="293.02" y1="376.1" x2="249.66" y2="373.7" xlink:href="#linear-gradient-6"/><linearGradient id="linear-gradient-19" x1="171.3" y1="238.2" x2="230.99" y2="239.05" xlink:href="#linear-gradient-2"/><linearGradient id="linear-gradient-20" x1="361" y1="218.45" x2="431.11" y2="190.86" gradientUnits="userSpaceOnUse"><stop offset="0" stop-color="#fff" stop-opacity="0"/><stop offset="0.52" stop-color="#fff" stop-opacity="0.84"/><stop offset="0.97" stop-color="#fff"/></linearGradient><linearGradient id="linear-gradient-21" x1="336.71" y1="44.54" x2="344.22" y2="85.46" xlink:href="#linear-gradient-2"/><linearGradient id="linear-gradient-22" x1="304.8" y1="201.66" x2="404.42" y2="201.66" xlink:href="#linear-gradient"/><linearGradient id="linear-gradient-23" x1="334.9" y1="111.97" x2="320.26" y2="115.72" xlink:href="#linear-gradient-2"/><linearGradient id="linear-gradient-24" x1="316.33" y1="156.93" x2="316.05" y2="183.4" xlink:href="#linear-gradient-2"/><linearGradient id="linear-gradient-25" x1="278.92" y1="268.34" x2="340.32" y2="268.34" gradientTransform="translate(-74.65 118) rotate(-21.35)" xlink:href="#linear-gradient"/><linearGradient id="linear-gradient-26" x1="273.47" y1="370.44" x2="275.52" y2="370.44" xlink:href="#linear-gradient-6"/><linearGradient id="linear-gradient-27" x1="307.22" y1="306.4" x2="289.2" y2="301.14" xlink:href="#linear-gradient-6"/><linearGradient id="linear-gradient-28" x1="285.97" y1="304.32" x2="297.23" y2="307.42" xlink:href="#linear-gradient-2"/><linearGradient id="linear-gradient-29" x1="302.31" y1="267.68" x2="300.76" y2="280.64" xlink:href="#linear-gradient-2"/><linearGradient id="linear-gradient-30" x1="278.39" y1="332.71" x2="282.19" y2="347.63" xlink:href="#linear-gradient-2"/><linearGradient id="linear-gradient-31" x1="290.2" y1="300.02" x2="297.42" y2="300.02" xlink:href="#linear-gradient-2"/><linearGradient id="linear-gradient-32" x1="332.08" y1="126.12" x2="326.73" y2="114.95" xlink:href="#linear-gradient-2"/></defs><title>59. Bikes</title><path d="M217.35,119.14C200.86,133,187.46,151,168.38,161c-10.68,5.59-22.56,8.35-34.17,11.55-39.18,10.8-80,30.21-97.09,67.09-3.84,8.3-6.32,17.22-10.77,25.2C22.73,271.3,17.89,277,14,283.36A75.23,75.23,0,0,0,4.22,336.5c4.45,23.13,19.92,43.15,39.13,56.77a122.92,122.92,0,0,0,45.86,20c37.52,7.84,76.18-2.19,114.46-4,71-3.44,142.34,21.32,212.41,9.36,19.51-3.33,39.93-10.49,51.23-26.74,7.6-10.94,10.06-24.66,10.7-38a165.32,165.32,0,0,0-28.43-100.34c-7.33-10.72-16.16-21-18.91-33.74-1.61-7.44-1-15.18-1.86-22.74a58.37,58.37,0,0,0-25.92-41.69c-16.18-10.46-37.19-12.57-51.72-25.21-20.38-17.74-26.75-35.79-56.54-37.94C266.7,90.21,238.55,101.33,217.35,119.14Z" transform="translate(-2.92 -52.17)" fill="#68e1fd" opacity="0.12" class="target-color"/><path d="M311.74,173.39s8.64,18.45,12.77,22.79S389.64,228,389.64,228s2.37,2.9,6.86,1.15,9.3-13.31,9.3-13.31-3.38-4.88-7.5-5.09-1.8-3.42-1.8-3.42l-7.27,3.42s-4.4,2.26-15.94-6.26S338.38,185,338.38,185l-5-14.21Z" transform="translate(-2.92 -52.17)" fill="url(#linear-gradient)"/><path d="M311.74,173.39s8.64,18.45,12.77,22.79S389.64,228,389.64,228s2.37,2.9,6.86,1.15,9.3-13.31,9.3-13.31-3.38-4.88-7.5-5.09-1.8-3.42-1.8-3.42l-7.27,3.42s-4.4,2.26-15.94-6.26S338.38,185,338.38,185l-5-14.21Z" transform="translate(-2.92 -52.17)" fill="url(#linear-gradient-2)"/><polygon points="328.08 77.56 331.91 113.03 331.91 120.07 326.08 120.07 317.17 104.25 328.08 77.56" fill="#68e1fd" class="target-color"/><polygon points="328.08 77.56 331.91 113.03 331.91 120.07 326.08 120.07 317.17 104.25 328.08 77.56" fill="url(#linear-gradient-3)"/><path d="M151.28,400.85c-8.87-.3-17.75-.59-26.61-.11-11.06.61-22,2.42-32.94,4.23l-31.26,5.18c6.69,7.55,17.28,10,27.16,12.08C96,424,104.47,425.75,113,426.35c10,.71,20.14-.2,30.19-.8,38.62-2.29,77.35-.07,116,1.37q90.5,3.39,181.08,1.11c-1.43-4.32-5.88-7-10.35-7.88s-9.07-.2-13.61.12c-16.88,1.2-32.12-2.83-47.59-9.1-12.86-5.21-25.79-3.94-39.58-4.4l-113-3.76Z" transform="translate(-2.92 -52.17)" fill="url(#linear-gradient-4)"/><ellipse cx="291.56" cy="299.5" rx="23.04" ry="23.29" fill="#68e1fd" class="target-color"/><ellipse cx="291.56" cy="299.5" rx="23.04" ry="23.29" fill="url(#linear-gradient-5)"/><path d="M123.84,419.46a77.88,77.88,0,1,1,77.88-77.88A78,78,0,0,1,123.84,419.46Zm0-146.53a68.66,68.66,0,1,0,68.66,68.65A68.73,68.73,0,0,0,123.84,272.93Z" transform="translate(-2.92 -52.17)"/><path d="M401.75,425.86A76.9,76.9,0,1,1,478.66,349,77,77,0,0,1,401.75,425.86Zm0-143.83A66.93,66.93,0,1,0,468.68,349,67,67,0,0,0,401.75,282Z" transform="translate(-2.92 -52.17)"/><path d="M404.08,364.75a3,3,0,0,1-1.59.65c-34.23-12.26-41-99.44-41-99.44l8.41-1.79c0,.22,0,.45.06.67,5.7,72.15,34.43,98.85,34.43,98.85A1.2,1.2,0,0,1,404.08,364.75Z" transform="translate(-2.92 -52.17)" fill="#68e1fd" class="target-color"/><path d="M404.08,364.75C371.27,350.37,364.72,266,364.72,266l5.26-1.12c5.7,72.15,34.43,98.85,34.43,98.85A1.2,1.2,0,0,1,404.08,364.75Z" transform="translate(-2.92 -52.17)" fill="url(#linear-gradient-6)"/><path d="M206.78,221.17l32.09,62,19.85-1.54,1.34-62.47S211.58,179.74,206.78,221.17Z" transform="translate(-2.92 -52.17)" fill="#25233a"/><path d="M258.36,287.76l-1.14-6-18.35,1.42,2.86,8.19-1.28,4A48.47,48.47,0,0,0,239,319.12l26.76,54,9.6-.63Z" transform="translate(-2.92 -52.17)" fill="url(#linear-gradient-7)"/><path d="M225.2,249.58h8.49l-17.9,100.95a4.16,4.16,0,0,1-4.11,3.45h-.07a4.19,4.19,0,0,1-4.12-4.91Z" transform="translate(-2.92 -52.17)" fill="#68e1fd" class="target-color"/><polygon points="222.28 216.14 356.31 182.86 356.31 192.91 222.28 226.84 222.28 216.14" fill="#68e1fd" class="target-color"/><polygon points="213.26 281.85 356.31 194.98 356.31 207.36 213.26 293.17 213.26 281.85" fill="#68e1fd" class="target-color"/><polygon points="213.26 281.85 356.31 194.98 356.31 207.36 213.26 293.17 213.26 281.85" fill="url(#linear-gradient-8)"/><path d="M374.83,234.41v24.76a5.81,5.81,0,0,1-4.77,5.72l-4,.73a5.81,5.81,0,0,1-6.86-5.72V235.13a5.82,5.82,0,0,1,4.77-5.72l.73-.13,3.25-.59A5.81,5.81,0,0,1,374.83,234.41Z" transform="translate(-2.92 -52.17)" fill="#68e1fd" class="target-color"/><path d="M374.83,232.81v27.47a4.48,4.48,0,0,1-3.68,4.41l-6.64,1.22a4.49,4.49,0,0,1-5.29-4.41V234a4.48,4.48,0,0,1,3.68-4.41l1.82-.34,4.82-.88A4.48,4.48,0,0,1,374.83,232.81Z" transform="translate(-2.92 -52.17)" fill="url(#linear-gradient-9)"/><polyline points="377.41 210.72 371.91 211.72 371.91 175.25 361.8 177.1 361.8 177 377.41 174.13" fill="url(#linear-gradient-10)"/><polygon points="371.91 175.25 371.91 211.72 361.8 213.57 361.8 177.1 371.91 175.25" fill="url(#linear-gradient-11)"/><path d="M225.2,268.32l-117.44,73s-5.11,13.05,0,12.65,108-3.45,108-3.45l.38-11.25-101.73,9.35s-3.29-2,1.37-5.74S225.2,279,225.2,279Z" transform="translate(-2.92 -52.17)" fill="#68e1fd" class="target-color"/><path d="M233.69,249.58,230.61,267l-2,11.17-12.83,72.38a4.16,4.16,0,0,1-4.11,3.45h-.07a4.18,4.18,0,0,1-4.06-3.21,4,4,0,0,1-.06-1.7l1.63-9.14,10.24-57.56,2.09-11.72,3.75-21.07Z" transform="translate(-2.92 -52.17)" fill="url(#linear-gradient-12)"/><polygon points="356.3 182.87 356.3 192.91 225.7 225.97 227.69 214.81 356.3 182.87" fill="url(#linear-gradient-13)"/><line x1="356.31" y1="207.36" x2="213.26" y2="293.17" fill="url(#linear-gradient-14)"/><path d="M114.44,348.63l94.68-8.7-1.63,9.14c-.1.59.52-4.26.66-3.72-24.52.74-95.21,4-99.86,6.32s3-10.09,3-10.09l109.28-65.93-1.2,6.72c-22.1,12.71-99.57,57.3-103.55,60.52C111.15,346.65,114.44,348.63,114.44,348.63Z" transform="translate(-2.92 -52.17)" fill="url(#linear-gradient-15)"/><path d="M382.49,225.46l-5.19,6.42s.11,5.24,3.7,4.94l20.7-27.31s11.8-16.43.87-24a18.78,18.78,0,0,0-8.25-3.15c-14.63-1.95-27.62,9.58-28.22,24.32l-1,23.65,6.68-.39,1.33-26.42c.36-11,19.1-22.78,26.82-11.31C404.32,198.67,390.65,216,382.49,225.46Z" transform="translate(-2.92 -52.17)" fill="#68e1fd" class="target-color"/><path d="M319.36,110.43c4.93-4.43,9.48-9.85,10.58-16.39.46-2.8.31-5.72.67-8.53.67-5.17,1.6-10.85,5.61-14.19a16.48,16.48,0,0,1,6.73-3,22.23,22.23,0,0,1,6.64-.72c7.14.45,13.47,6.23,15,13.21a35.75,35.75,0,0,1,.54,7.53v7.17a12.28,12.28,0,0,0,.61,4.68c.54,1.32,1.56,2.63,1.22,4a5.09,5.09,0,0,1-2.16,2.46,17,17,0,0,0-3.19,3.26c-1.43,1.93-2.48,4.19-4.36,5.68-3.08,2.45-7.47,2.15-11.36,1.57a15.86,15.86,0,0,0-5.09-.22c-3.56.65-6.19,3.76-9.63,4.88a3.76,3.76,0,0,1-1.44.24c-1.36-.09-2.36-1.24-3.21-2.3C324.26,116.91,321.62,113.25,319.36,110.43Z" transform="translate(-2.92 -52.17)" fill="url(#linear-gradient-16)"/><path d="M329.88,140.76a33.4,33.4,0,0,1-9.79,15.67l-57.87,52.12a40.44,40.44,0,0,1-30.07,10.3c-.34,0-.69,0-1-.09-15.76-1.58-34.34-8.33-29.46-32.09,8.17-39.79,89-73.11,89-73.11,26.25-11.06,36-1.68,39.31,9.94A31.63,31.63,0,0,1,329.88,140.76Z" transform="translate(-2.92 -52.17)" fill="#68e1fd" class="target-color"/><path d="M324.87,133.57,324,143c-1.68,5.93.87,9.12-3.87,13.39l-57.87,52.12a40.44,40.44,0,0,1-30.07,10.3l-12.06-5.34S227,190.83,266,161,324.87,133.57,324.87,133.57Z" transform="translate(-2.92 -52.17)" fill="url(#linear-gradient-17)"/><path d="M265.32,372.56a1.4,1.4,0,0,0-.73.16,1.16,1.16,0,0,0-.39.55c-.84,2-.08,4.36.74,6.4a2,2,0,0,0,.49.81,1.74,1.74,0,0,0,.82.33c2.1.32,4.1-1,6.23-1.19a22.09,22.09,0,0,0,3.26-.08,5.11,5.11,0,0,0,3.54-4,14.93,14.93,0,0,0-.11-5.57,1.12,1.12,0,0,0-.32-.76,1,1,0,0,0-.56-.15,5,5,0,0,0-2.77.65c-.72.41-1.33,1-2,1.43C271.11,372.57,268,372.51,265.32,372.56Z" transform="translate(-2.92 -52.17)" fill="#68e1fd" class="target-color"/><path d="M265.32,372.56a1.4,1.4,0,0,0-.73.16,1.16,1.16,0,0,0-.39.55c-.84,2-.08,4.36.74,6.4a2,2,0,0,0,.49.81,1.74,1.74,0,0,0,.82.33c2.1.32,4.1-1,6.23-1.19a22.09,22.09,0,0,0,3.26-.08,5.11,5.11,0,0,0,3.54-4,14.93,14.93,0,0,0-.11-5.57,1.12,1.12,0,0,0-.32-.76,1,1,0,0,0-.56-.15,5,5,0,0,0-2.77.65c-.72.41-1.33,1-2,1.43C271.11,372.57,268,372.51,265.32,372.56Z" transform="translate(-2.92 -52.17)" fill="url(#linear-gradient-18)"/><path d="M268.32,379.75a5.34,5.34,0,0,0-2.07,1.22c-1.28,1.34-1.18,3.43-.91,5.26a62.74,62.74,0,0,0,1.26,6.39c.28,1.1.73,2.36,1.81,2.72a3.58,3.58,0,0,0,1.69,0,196.67,196.67,0,0,0,28.16-7.08,1.68,1.68,0,0,0,.94-.56,1.57,1.57,0,0,0,.12-1.19c-1.2-6.22-7.18-5.81-12.05-6.58C281,378.93,274.44,377.45,268.32,379.75Z" transform="translate(-2.92 -52.17)" fill="#25233a"/><path d="M219.78,228.08s-18.54-3.71-16.8,6.59,3.1,12.42,8.34,14c22.1,6.41,45.43-7.48,45.43-7.48S258.64,227.43,219.78,228.08Z" transform="translate(-2.92 -52.17)" fill="#68e1fd" class="target-color"/><path d="M219.78,228.08s-18.54-3.71-16.8,6.59,3.1,12.42,8.34,14c22.1,6.41,45.43-7.48,45.43-7.48S258.64,227.43,219.78,228.08Z" transform="translate(-2.92 -52.17)" fill="url(#linear-gradient-19)"/><path d="M345.42,90.36c-.59,2.53-.81,5.26-2.3,7.38L341.29,93a1.82,1.82,0,0,0-.65-1,1.41,1.41,0,0,0-1.29.07,4.25,4.25,0,0,0-2.24,3.69,7.67,7.67,0,0,0,1.31,4.28,3.28,3.28,0,0,1,.58,1.26,2,2,0,0,1-1.28,1.9,5.8,5.8,0,0,1-2.42.32l-4.37-.06c-4-.06-8.53-.34-11.16-3.36.6-.88,2-1,2.58-1.82a2.07,2.07,0,0,0,0-2.12,6,6,0,0,0-1.51-1.63L318,92.2c-.74-.62-1.54-1.44-1.34-2.38.38-1.79,3.84-1.7,3.81-3.52,0-.89-.94-1.44-1.71-1.89s-1.59-1.25-1.28-2.08c.36-1,1.8-.85,2.74-1.34,0-1.18-1.82-1.61-2-2.76a1.6,1.6,0,0,1,.9-1.56,4.67,4.67,0,0,1,1.86-.4l4.38-.34a104,104,0,0,1,17.19-.39,9,9,0,0,1,3.29.75A7.52,7.52,0,0,1,348.66,79c.89,1.42.52,1.83-.17,3.29A40.06,40.06,0,0,0,345.42,90.36Z" transform="translate(-2.92 -52.17)" fill="#25233a"/><path d="M380.33,232.57l-3-.69s.11,5.24,3.7,4.94l20.7-27.31s11.8-16.43.87-24a18.78,18.78,0,0,0-8.25-3.15c-14.63-1.95-27.62,9.58-28.22,24.32l-1,23.65,2.82-1.67,1.8-25.66c.36-11,20.83-25,32.75-13C410.92,198.39,390.69,226.07,380.33,232.57Z" transform="translate(-2.92 -52.17)" fill="url(#linear-gradient-20)"/><path d="M287,378.45c-20.84,0-148.23-14.64-173.85-17.61a9.81,9.81,0,0,1-8.74-10.42c.31-3.42,2.58-7.68,11.68-8.53h0c1.6-.15,159.71-14.83,175.11-16.49,8.14-.87,15.63,1.33,21.08,6.19A24.43,24.43,0,0,1,320.17,350c.09,18.67-10.52,28-32.45,28.44ZM116.24,343.88c-6.21.58-9.53,2.84-9.88,6.72a7.8,7.8,0,0,0,7,8.25c25.93,3,156.18,18,174.34,17.59,20.89-.44,30.58-8.84,30.49-26.43a22.4,22.4,0,0,0-7.27-16.92c-5-4.49-11.95-6.52-19.53-5.7-15.41,1.66-173.52,16.34-175.13,16.49Z" transform="translate(-2.92 -52.17)" opacity="0.42"/><path d="M367.94,69.27c0,2.69-.41,5.59-2.49,7.56-1.89,1.79-4.76,2.46-7.49,2.88a67.22,67.22,0,0,1-42.34-7.48c-2.2-1.23-4.58-3.3-3.68-5.46a3.61,3.61,0,0,1,1.25-1.45,12.19,12.19,0,0,1,2.05-1.1c6-2.7,12.06-5.41,18.18-7.95a55.17,55.17,0,0,1,10.49-3.48c5.8-1.14,14.48-.9,19.44,2.48,3.29,2.24,4.22,7.13,4.48,11.14C367.91,67.44,367.93,68.42,367.94,69.27Z" transform="translate(-2.92 -52.17)" fill="#68e1fd" class="target-color"/><path d="M367.83,66.41a8.41,8.41,0,0,1-2.38,5.27c-1.89,1.8-4.76,2.47-7.49,2.89a67.23,67.23,0,0,1-42.34-7.49,12.34,12.34,0,0,1-2.43-1.76,12.19,12.19,0,0,1,2.05-1.1c6-2.7,12.06-5.41,18.18-7.95a55.17,55.17,0,0,1,10.49-3.48c5.8-1.14,14.48-.9,19.44,2.48C366.64,57.51,367.57,62.4,367.83,66.41Z" transform="translate(-2.92 -52.17)" fill="url(#linear-gradient-21)"/><path d="M320.18,117.06a9.82,9.82,0,0,0-6.88,2c-4.66,3.32-7.09,8.95-8.55,14.48a126.14,126.14,0,0,0-2.91,18.27c-.69,6.37-1.38,12.88,0,19.15.43,2,1.21,4.17,3,5.21,2.12,1.25,4.8.47,7.13-.33l14.79-5.12a4.43,4.43,0,0,0,2.75-1.85,4.27,4.27,0,0,0,.07-2.76c-1.65-8-.57-18.37.08-26.48C330.16,132.82,331.59,118.62,320.18,117.06Z" transform="translate(-2.92 -52.17)" fill="#68e1fd" class="target-color"/><path d="M304.8,176.2s9.14,18.45,13.52,22.8,69,31.86,69,31.86,2.51,2.9,7.27,1.14,9.84-13.3,9.84-13.3-3.58-4.88-7.94-5.1-1.9-3.42-1.9-3.42l-7.71,3.42s-4.66,2.26-16.88-6.25-37-19.58-37-19.58l-6.29-17Z" transform="translate(-2.92 -52.17)" fill="url(#linear-gradient-22)"/><path d="M314.29,108.86l9.37-2.75S330.15,118,329.73,122Z" transform="translate(-2.92 -52.17)" fill="#68e1fd" class="target-color"/><path d="M314.29,108.86l9.37-2.75S330.15,118,329.73,122Z" transform="translate(-2.92 -52.17)" fill="url(#linear-gradient-23)"/><path d="M329.47,168.9l-1,6.73-21.16,5.58-4.49-7.12S318.18,171.47,329.47,168.9Z" transform="translate(-2.92 -52.17)" fill="#68e1fd" class="target-color"/><path d="M329.47,168.9l-1,6.73-21.16,5.58-4.49-7.12S318.18,171.47,329.47,168.9Z" transform="translate(-2.92 -52.17)" fill="url(#linear-gradient-24)"/><path d="M200.46,212.27s.11,23.19,24.76,27.19,74.08-6.21,74.08-6.21l11.49-22.05-56.07-14.59S204.76,190.61,200.46,212.27Z" transform="translate(-2.92 -52.17)" fill="#25233a"/><path d="M310.79,211.2,299.3,233.25s12-2.78,13.26-.39-9.93,7.32-11.22,40.1c-.14,3.62-2.35,18.07-3,21.64l-2,6.46s8.6.91,9,.78,36.19-75.92,23.21-84.53C324.82,214.8,310.79,211.2,310.79,211.2Z" transform="translate(-2.92 -52.17)" fill="url(#linear-gradient-25)"/><path d="M290.56,301.32a4.45,4.45,0,0,1,1.66-3.47,3.71,3.71,0,0,1,2.89-.26,20.4,20.4,0,0,1,2.76,1.11,14.93,14.93,0,0,0,6.3,1.14c.94,0,2-.08,2.62.66a2.66,2.66,0,0,1,.07,2.4,30,30,0,0,1-1.95,4.78,1.52,1.52,0,0,1-.45.61,1.69,1.69,0,0,1-.7.22,31.75,31.75,0,0,1-10.87-.25C288.78,307.44,290.28,304.41,290.56,301.32Z" transform="translate(-2.92 -52.17)" fill="#68e1fd" class="target-color"/><path d="M275.52,369.73c-.72.41-1.33,1-2,1.43" transform="translate(-2.92 -52.17)" fill="url(#linear-gradient-26)"/><path d="M290.56,301.32a4.45,4.45,0,0,1,1.66-3.47,3.71,3.71,0,0,1,2.89-.26,20.4,20.4,0,0,1,2.76,1.11,14.93,14.93,0,0,0,6.3,1.14c.94,0,2-.08,2.62.66a2.66,2.66,0,0,1,.07,2.4,30,30,0,0,1-1.95,4.78,1.52,1.52,0,0,1-.45.61,1.69,1.69,0,0,1-.7.22,31.75,31.75,0,0,1-10.87-.25C288.78,307.44,290.28,304.41,290.56,301.32Z" transform="translate(-2.92 -52.17)" fill="url(#linear-gradient-27)"/><path d="M290.85,307.09a29.82,29.82,0,0,1,5.73-.47,10.48,10.48,0,0,1,4.51,1.09c3.3,1.75,5,5.65,8.13,7.61a41.22,41.22,0,0,0,4.56,2,6.24,6.24,0,0,1,3.52,3.35,8,8,0,0,1,.2,3,3,3,0,0,1-.7,2.11,3,3,0,0,1-2,.51c-2.36,0-23.71-3.47-31.7-4.92-.42-.07-4.73.89-3.09-4.37a30.68,30.68,0,0,1,2.3-5.57C283.78,308.36,287.88,307.53,290.85,307.09Z" transform="translate(-2.92 -52.17)" fill="#25233a"/><polygon points="283.21 339.72 279.14 338.46 299.92 272 303.98 273.25 283.21 339.72" fill="#68e1fd" class="target-color"/><polygon points="283.21 339.72 279.14 338.46 299.92 272 303.98 273.25 283.21 339.72" fill="url(#linear-gradient-28)"/><polygon points="290.03 271.06 288.5 276.19 313.51 279.57 314.21 275.11 290.03 271.06" fill="#68e1fd" class="target-color"/><polygon points="268.39 341.73 269.02 347.04 293.32 340.2 292.19 335.82 268.39 341.73" fill="#68e1fd" class="target-color"/><polygon points="290.03 271.06 288.5 276.19 313.51 279.57 314.21 275.11 290.03 271.06" fill="url(#linear-gradient-29)"/><polygon points="268.39 341.73 269.02 347.04 293.32 340.2 292.19 335.82 268.39 341.73" fill="url(#linear-gradient-30)"/><circle cx="293.28" cy="300.02" r="3.61" fill="#68e1fd" class="target-color"/><circle cx="293.81" cy="300.02" r="3.61" fill="url(#linear-gradient-31)"/><polygon points="331.91 114.91 326.4 117.84 325.61 123.45 331.91 120.07 331.91 114.91" fill="#68e1fd" class="target-color"/><polygon points="331.91 114.91 326.4 117.84 325.61 123.45 331.91 120.07 331.91 114.91" fill="url(#linear-gradient-32)"/></svg>