<svg id="Layer_1" data-name="Layer 1" xmlns="http://www.w3.org/2000/svg" viewBox="0 0 400 300" data-imageid="camera-two-color" imageName="Camera" class="illustrations_image" style="width: 186px;"><path d="M127.34,141.78s-7.66-55.7,48-75.07,46.37,33.7,108.62,29.13,68.61,91.71-17.58,79.35" fill="none" stroke="#24285b" stroke-miterlimit="10" stroke-width="11"/><ellipse cx="191.28" cy="227.92" rx="158.48" ry="18.1" fill="#e6e6e6" opacity="0.45"/><polygon points="244.74 135 231.3 114.51 185.35 114.51 171.47 135 131.48 135 131.48 225.06 280.39 225.06 280.39 135 244.74 135" fill="#68e1fd" class="target-color"/><polygon points="244.74 135 231.3 114.51 185.35 114.51 171.47 135 131.48 135 131.48 225.06 280.39 225.06 280.39 135 244.74 135" opacity="0.08"/><polygon points="223.06 135 209.62 114.51 163.67 114.51 149.8 135 109.81 135 109.81 225.06 258.72 225.06 258.72 135 223.06 135" fill="#68e1fd" class="target-color"/><rect x="241.97" y="127.95" width="25.69" height="7.04" fill="#ffd200"/><rect x="241.97" y="127.95" width="25.69" height="7.04" opacity="0.08"/><circle cx="179.28" cy="176.29" r="37.82" opacity="0.08"/><rect x="233.03" y="127.95" width="25.69" height="7.04" fill="#ffd200"/><rect x="101.25" y="135" width="31.65" height="90.06" fill="#68e1fd" class="target-color"/><circle cx="163.46" cy="176.29" r="37.82" fill="#68e1fd" class="target-color"/><circle cx="163.46" cy="176.29" r="37.82" fill="#fff" opacity="0.46"/><circle cx="163.46" cy="176.29" r="30.07" fill="#24285b"/><circle cx="168.44" cy="171.52" r="15.82" fill="#fff" opacity="0.08"/><circle cx="174.65" cy="168.4" r="6.2" fill="#fff" opacity="0.08"/><rect x="224.25" y="166.53" width="13.33" height="20.81" fill="#ffd200"/><rect x="107.36" y="141.01" width="18.27" height="7.4" fill="#fff" opacity="0.39"/><path d="M301.07,92.43l-3.8,8.44a4.33,4.33,0,0,0,2.24,5.76c7,3.06,20.56,11.39,21.37,30.19a4.36,4.36,0,0,0,4.33,4.19h9.49a4.32,4.32,0,0,0,4.33-4.27c.07-10.5-2.79-37.4-32.7-46.66A4.35,4.35,0,0,0,301.07,92.43Z" fill="#ffd200"/><rect x="51" y="160.28" width="58.81" height="64.78" fill="#68e1fd" class="target-color"/><rect x="51" y="160.28" width="58.81" height="64.78" fill="#fff" opacity="0.46"/><rect x="59.18" y="169.29" width="42.44" height="46.18" fill="#68e1fd" class="target-color"/><polygon points="59.19 215.47 72.06 186.21 81.94 206.36 89.08 190.25 101.63 215.47 59.19 215.47" fill="#24285b"/><circle cx="80.4" cy="181.05" r="4.76" fill="#24285b"/><rect x="109.81" y="166.53" width="9.05" height="58.52" opacity="0.08"/><rect x="280.39" y="211.6" width="39.2" height="13.46" fill="#c9c9c9"/><rect x="280.39" y="198.14" width="24.76" height="13.46" fill="#c9c9c9" opacity="0.28"/></svg>